<svg viewBox="0 0 500 500" width="100%" height="100%" xmlns="http://www.w3.org/2000/svg">
  <defs>
    <linearGradient id="bgGrad" x1="0%" y1="0%" x2="100%" y2="100%">
      <stop offset="0%" stop-color="#6366F1" />
      <stop offset="100%" stop-color="#F43F5E" />
    </linearGradient>

    <filter id="shadow" x="-10%" y="-10%" width="120%" height="120%">
      <feDropShadow dx="0" dy="12" stdDeviation="15" flood-color="#000000" flood-opacity="0.3"/>
    </filter>

    <filter id="lightShadow" x="-10%" y="-10%" width="120%" height="120%">
      <feDropShadow dx="0" dy="6" stdDeviation="6" flood-color="#000000" flood-opacity="0.15"/>
    </filter>

    <pattern id="grid" width="40" height="40" patternUnits="userSpaceOnUse">
      <path d="M 40 0 L 0 0 0 40" fill="none" stroke="#FFFFFF" stroke-opacity="0.07" stroke-width="1"/>
    </pattern>

    <path id="gamepad-body" d="M 165 200 C 200 200, 220 220, 250 220 C 280 220, 300 200, 335 200 A 65 65 0 0 1 400 265 A 65 65 0 0 1 335 330 C 300 330, 280 310, 250 310 C 220 310, 200 330, 165 330 A 65 65 0 0 1 100 265 A 65 65 0 0 1 165 200 Z" />
  </defs>

  <g filter="url(#shadow)">
    <rect x="50" y="50" width="400" height="400" rx="30" fill="url(#bgGrad)"/>
    <rect x="50" y="50" width="400" height="400" rx="30" fill="url(#grid)"/>
    
    <path d="M 50 95 L 450 95" stroke="#ffffff" stroke-opacity="0.2" stroke-width="2"/>
    <circle cx="85" cy="72" r="6" fill="#FF5F56"/>
    <circle cx="105" cy="72" r="6" fill="#FFBD2E"/>
    <circle cx="125" cy="72" r="6" fill="#27C93F"/>
    
    <rect x="155" y="62" width="240" height="20" rx="10" fill="#ffffff" fill-opacity="0.25"/>
  </g>

  <path d="M 50 320 Q 150 220 250 320 T 450 320" fill="none" stroke="#FFFFFF" stroke-opacity="0.15" stroke-width="25" stroke-linecap="round"/>

  <path d="M 110 130 Q 110 150 130 150 Q 110 150 110 170 Q 110 150 90 150 Q 110 150 110 130 Z" fill="#FDE047" opacity="0.9"/>
  <path d="M 390 140 Q 390 155 405 155 Q 390 155 390 170 Q 390 155 375 155 Q 390 155 390 140 Z" fill="#67E8F9" opacity="0.9"/>
  <path d="M 120 370 Q 120 380 130 380 Q 120 380 120 390 Q 120 380 110 380 Q 120 380 120 370 Z" fill="#F9A8D4" opacity="0.9"/>
  <path d="M 400 350 Q 400 365 415 365 Q 400 365 400 380 Q 400 365 385 365 Q 400 365 400 350 Z" fill="#FDE047" opacity="0.9"/>

  <g filter="url(#shadow)">
    <use href="#gamepad-body" fill="#CBD5E1" transform="translate(0, 8)"/>
    
    <use href="#gamepad-body" fill="#FFFFFF"/>

    <g transform="translate(132, 236)" fill="#0F172A" opacity="0.4">
      <rect x="25" y="0" width="16" height="66" rx="4"/>
      <rect x="0" y="25" width="66" height="16" rx="4"/>
    </g>
    <g transform="translate(132, 232)">
      <rect x="25" y="0" width="16" height="66" rx="4" fill="#334155"/>
      <rect x="0" y="25" width="66" height="16" rx="4" fill="#334155"/>
      <circle cx="33" cy="33" r="6" fill="#1E293B"/>
    </g>

    <g transform="translate(250, 269) rotate(-20)" opacity="0.4">
      <rect x="-22" y="-15" width="44" height="12" rx="6" fill="#0F172A"/>
      <rect x="-22" y="5" width="44" height="12" rx="6" fill="#0F172A"/>
    </g>
    <g transform="translate(250, 265) rotate(-20)">
      <rect x="-22" y="-15" width="44" height="12" rx="6" fill="#94A3B8"/>
      <rect x="-22" y="5" width="44" height="12" rx="6" fill="#94A3B8"/>
    </g>

    <g transform="translate(302, 236)" fill="#0F172A" opacity="0.4">
      <circle cx="33" cy="12" r="14"/>
      <circle cx="12" cy="33" r="14"/>
      <circle cx="54" cy="33" r="14"/>
      <circle cx="33" cy="54" r="14"/>
    </g>
    
    <g transform="translate(302, 232)">
      <circle cx="33" cy="12" r="14" fill="#F43F5E"/>
      <circle cx="12" cy="33" r="14" fill="#3B82F6"/>
      <circle cx="54" cy="33" r="14" fill="#F59E0B"/>
      <circle cx="33" cy="54" r="14" fill="#10B981"/>
    </g>
  </g>

  <g transform="translate(345, 255) scale(1.3)" filter="url(#lightShadow)">
    <path d="M 0 0 L 0 25 L 7 18 L 13 30 L 19 27 L 13 15 L 22 15 Z" fill="#FFFFFF" stroke="#1E293B" stroke-width="2" stroke-linejoin="round"/>
  </g>

</svg>